<svg width="16" height="16" viewBox="0 0 16 16" fill="none" xmlns="http://www.w3.org/2000/svg">
<g clip-path="url(#clip0_1_8)">
<path fill-rule="evenodd" clip-rule="evenodd" d="M8 6.14093L14 3.825V11.4554C14 11.5932 13.9152 11.7168 13.7867 11.7664L8 14V6.14093Z" fill="#141712"/>
<path fill-rule="evenodd" clip-rule="evenodd" d="M8 2.72938L11.1374 3.85799L8 5.06902L4.86257 3.85799L8 2.72938ZM3 5.28289L7 6.82682V12.5421L3 10.9982V5.28289ZM9 12.5421V6.82682L13 5.28289V10.9982L9 12.5421ZM8.45133 0.766269C8.1596 0.661325 7.8404 0.661325 7.54867 0.766269L1.66151 2.88401C1.26463 3.02678 1 3.40322 1 3.82499V11.4554C1 12.0065 1.33906 12.5009 1.85321 12.6993L7.6399 14.9329C7.87163 15.0224 8.12837 15.0224 8.3601 14.9329L14.1468 12.6993C14.6609 12.5009 15 12.0065 15 11.4554V3.82499C15 3.40322 14.7354 3.02678 14.3385 2.88401L8.45133 0.766269Z" fill="#141712"/>
</g>
<defs>
<clipPath id="clip0_1_8">
<rect width="16" height="16" fill="white"/>
</clipPath>
</defs>
</svg>
